<svg width="53" height="53" viewBox="0 0 53 53" fill="none" xmlns="http://www.w3.org/2000/svg">
<g clip-path="url(#clip0_399_3606)">
<path fill-rule="evenodd" clip-rule="evenodd" d="M26.6393 6.97461C29.5733 6.97461 32.3625 8.14236 34.4355 10.2153C36.5084 12.2882 37.6762 15.0775 37.6762 18.0114V22.6515H41.5674C41.7691 22.6515 41.953 22.7345 42.0867 22.8682C42.2204 23.0019 42.3034 23.1859 42.3034 23.3876V45.6836C42.3034 45.8853 42.2204 46.0693 42.0867 46.2029C41.953 46.3367 41.7691 46.4197 41.5674 46.4197H11.4328C11.2311 46.4197 11.0472 46.3367 10.9135 46.2029C10.7798 46.0693 10.6968 45.8853 10.6968 45.6836V23.3876C10.6968 23.1859 10.7798 23.0019 10.9135 22.8682C11.0472 22.7345 11.2311 22.6515 11.4328 22.6515H15.6025V18.0114C15.6025 15.0775 16.7703 12.2882 18.8432 10.2153C20.9162 8.14239 23.7054 6.97461 26.6393 6.97461ZM28.8065 29.7129C28.2164 29.1227 27.4008 28.7576 26.5001 28.7576C25.5993 28.7576 24.7838 29.1227 24.1936 29.7129C23.6034 30.3031 23.2383 31.1186 23.2383 32.0193C23.2383 32.9201 23.6034 33.7356 24.1936 34.3258C24.7838 34.9161 25.5993 35.2812 26.5001 35.2812C27.4008 35.2812 28.2164 34.9161 28.8065 34.3258C29.3968 33.7356 29.7619 32.9201 29.7619 32.0193C29.7619 31.1186 29.3968 30.3031 28.8065 29.7129ZM21.9234 32.0193C21.9234 30.7556 22.4358 29.6114 23.264 28.7832C24.0921 27.955 25.2364 27.4427 26.5001 27.4427C27.7638 27.4427 28.908 27.955 29.7362 28.7832C30.5644 29.6114 31.0767 30.7556 31.0767 32.0193C31.0767 33.2831 30.5644 34.4272 29.7362 35.2555C29.0543 35.9374 28.1582 36.4051 27.1575 36.5491V40.9712C27.1575 41.3343 26.8631 41.6286 26.5001 41.6286C26.137 41.6286 25.8426 41.3343 25.8426 40.9712V36.5491C24.842 36.4051 23.9458 35.9374 23.264 35.2555C22.4357 34.4272 21.9234 33.2831 21.9234 32.0193ZM18.8896 22.6516H34.3892V18.0115C34.3892 15.9503 33.5672 13.9955 32.1113 12.5396C30.6554 11.0836 28.7006 10.2617 26.6394 10.2617C24.5782 10.2617 22.6234 11.0836 21.1674 12.5396C19.7115 13.9955 18.8896 15.9503 18.8896 18.0115L18.8896 22.6516Z" fill="#4469FC"/>
</g>
<defs>
<clipPath id="clip0_399_3606">
<rect width="51.7717" height="51.7717" fill="white" transform="translate(0.614258 0.811523)"/>
</clipPath>
</defs>
</svg>
